{
  "source": "C:\\Users\\Peter\\Desktop\\stuff\\MIUN\\quantitative_research\\video_compression\\videos\\UVG\\ShakeNDry_1920x1080_120fps_420_8bit_YUV.y4m",
  "output": "C:\\Users\\Peter\\Desktop\\stuff\\MIUN\\quantitative_research\\video_compression\\compressed_videos\\UVG\\h264\\12\\ShakeNDry_1920x1080_120fps_420_8bit_YUV_h264.mp4",
  "codec": "h264",
  "ok": "[yuv4mpegpipe @ 0000025753055f80] Stream #0: not enough frames to estimate rate; consider increasing probesize\nInput #0, yuv4mpegpipe, from 'C:\\Users\\Peter\\Desktop\\stuff\\MIUN\\quantitative_research\\video_compression\\videos\\UVG\\ShakeNDry_1920x1080_120fps_420_8bit_YUV.y4m':\n  Duration: 00:00:02.50, start: 0.000000, bitrate: 2985989 kb/s\n  Stream #0:0: Video: rawvideo (I420 / 0x30323449), yuv420p(progressive), 1920x1080, 120 fps, 120 tbr, 120 tbn\n[out#0/mp4 @ 0000025753059e40] Codec AVOption b:a (set bitrate (in bits/s)) has not been used for any stream. The most likely reason is either wrong type (e.g. a video option with no video streams) or that it is a private option of some decoder which was not actually used for any stream.\nStream mapping:\n  Stream #0:0 -> #0:0 (rawvideo (native) -> h264 (libx264))\nPress [q] to stop, [?] for help\n[libx264 @ 000002575305cec0] using cpu capabilities: MMX2 SSE2Fast SSSE3 SSE4.2 AVX FMA3 BMI2 AVX2\n[libx264 @ 000002575305cec0] profile High, level 5.1, 4:2:0, 8-bit\n[libx264 @ 000002575305cec0] 264 - core 165 r3222 b35605a - H.264/MPEG-4 AVC codec - Copyleft 2003-2025 - http://www.videolan.org/x264.html - options: cabac=1 ref=5 deblock=1:0:0 analyse=0x3:0x113 me=hex subme=8 psy=1 psy_rd=1.00:0.00 mixed_ref=1 me_range=16 chroma_me=1 trellis=2 8x8dct=1 cqm=0 deadzone=21,11 fast_pskip=1 chroma_qp_offset=-2 threads=18 lookahead_threads=3 sliced_threads=0 nr=0 decimate=1 interlaced=0 bluray_compat=0 constrained_intra=0 bframes=3 b_pyramid=2 b_adapt=1 b_bias=0 direct=3 weightb=1 open_gop=0 weightp=2 keyint=250 keyint_min=25 scenecut=40 intra_refresh=0 rc_lookahead=50 rc=cbr mbtree=1 bitrate=12000 ratetol=1.0 qcomp=0.60 qpmin=0 qpmax=69 qpstep=4 vbv_maxrate=12000 vbv_bufsize=12000 nal_hrd=none filler=0 ip_ratio=1.40 aq=1:1.00\nOutput #0, mp4, to 'C:\\Users\\Peter\\Desktop\\stuff\\MIUN\\quantitative_research\\video_compression\\compressed_videos\\UVG\\h264\\12\\ShakeNDry_1920x1080_120fps_420_8bit_YUV_h264.mp4':\n  Metadata:\n    encoder         : Lavf62.3.100\n  Stream #0:0: Video: h264 (avc1 / 0x31637661), yuv420p(tv, progressive), 1920x1080, q=2-31, 12000 kb/s, 120 fps, 15360 tbn\n    Metadata:\n      encoder         : Lavc62.11.100 libx264\n    Side data:\n      cpb: bitrate max/min/avg: 12000000/0/12000000 buffer size: 12000000 vbv_delay: N/A\nframe=    0 fps=0.0 q=0.0 size=       0KiB time=N/A bitrate=N/A speed=N/A elapsed=0:00:00.51    \nframe=    0 fps=0.0 q=0.0 size=       0KiB time=N/A bitrate=N/A speed=N/A elapsed=0:00:01.04    \nframe=    0 fps=0.0 q=0.0 size=       0KiB time=N/A bitrate=N/A speed=N/A elapsed=0:00:01.60    \nframe=    5 fps=2.3 q=39.0 size=       0KiB time=00:00:00.01 bitrate=  23.0kbits/s speed=0.00773x elapsed=0:00:02.15    \nframe=   15 fps=5.5 q=37.0 size=       0KiB time=00:00:00.10 bitrate=   3.5kbits/s speed=0.0394x elapsed=0:00:02.75    \nframe=   17 fps=5.2 q=35.0 size=       0KiB time=00:00:00.12 bitrate=   3.1kbits/s speed=0.0384x elapsed=0:00:03.25    \nframe=   28 fps=7.4 q=35.0 size=     256KiB time=00:00:00.21 bitrate=9680.9kbits/s speed=0.0573x elapsed=0:00:03.77    \nframe=   37 fps=8.6 q=34.0 size=     256KiB time=00:00:00.29 bitrate=7191.5kbits/s speed=0.0679x elapsed=0:00:04.29    \nframe=   53 fps= 11 q=34.0 size=     512KiB time=00:00:00.41 bitrate=10067.2kbits/s speed=0.0858x elapsed=0:00:04.85    \nframe=   69 fps= 12 q=34.0 size=     512KiB time=00:00:00.55 bitrate=7512.9kbits/s speed=0.101x elapsed=0:00:05.52    \nframe=   86 fps= 14 q=33.0 size=     768KiB time=00:00:00.66 bitrate=9437.8kbits/s speed=0.11x elapsed=0:00:06.07    \nframe=  105 fps= 16 q=32.0 size=    1024KiB time=00:00:00.85 bitrate=9773.6kbits/s speed=0.129x elapsed=0:00:06.66    \nframe=  123 fps= 17 q=31.0 size=    1280KiB time=00:00:00.98 bitrate=10663.9kbits/s speed=0.137x elapsed=0:00:07.18    \nframe=  140 fps= 18 q=31.0 size=    1536KiB time=00:00:01.11 bitrate=11268.6kbits/s speed=0.144x elapsed=0:00:07.78    \nframe=  149 fps= 18 q=30.0 size=    1536KiB time=00:00:01.22 bitrate=10272.1kbits/s speed=0.147x elapsed=0:00:08.34    \nframe=  176 fps= 20 q=30.0 size=    1792KiB time=00:00:01.39 bitrate=10548.8kbits/s speed=0.156x elapsed=0:00:08.89    \nframe=  197 fps= 21 q=31.0 size=    2048KiB time=00:00:01.59 bitrate=10540.9kbits/s speed=0.167x elapsed=0:00:09.54    \nframe=  221 fps= 22 q=31.0 size=    2048KiB time=00:00:01.75 bitrate=9541.8kbits/s speed=0.172x elapsed=0:00:10.24    \nframe=  233 fps= 21 q=30.0 size=    2304KiB time=00:00:01.92 bitrate=9805.1kbits/s speed=0.176x elapsed=0:00:10.94    \nframe=  250 fps= 22 q=31.0 size=    2304KiB time=00:00:02.03 bitrate=9282.7kbits/s speed=0.176x elapsed=0:00:11.54    \nframe=  259 fps= 21 q=28.0 size=    2560KiB time=00:00:02.11 bitrate=9908.0kbits/s speed=0.174x elapsed=0:00:12.17    \nframe=  279 fps= 22 q=25.0 size=    2816KiB time=00:00:02.21 bitrate=10407.1kbits/s speed=0.173x elapsed=0:00:12.82    \nframe=  287 fps= 21 q=-1.0 size=    2816KiB time=00:00:02.37 bitrate=9713.3kbits/s speed=0.176x elapsed=0:00:13.49    \n[mp4 @ 0000025753059f40] Starting second pass: moving the moov atom to the beginning of the file\n[out#0/mp4 @ 0000025753059e40] video:3110KiB audio:0KiB subtitle:0KiB other streams:0KiB global headers:0KiB muxing overhead: 0.141010%\nframe=  300 fps= 22 q=-1.0 Lsize=    3115KiB time=00:00:02.48 bitrate=10274.5kbits/s speed=0.181x elapsed=0:00:13.72    \n[libx264 @ 000002575305cec0] frame I:2     Avg QP:26.66  size:159330\n[libx264 @ 000002575305cec0] frame P:76    Avg QP:29.23  size: 19444\n[libx264 @ 000002575305cec0] frame B:222   Avg QP:33.94  size:  6251\n[libx264 @ 000002575305cec0] consecutive B-frames:  1.3%  0.0%  0.0% 98.7%\n[libx264 @ 000002575305cec0] mb I  I16..4:  1.8% 89.4%  8.8%\n[libx264 @ 000002575305cec0] mb P  I16..4:  0.1%  2.0%  0.1%  P16..4: 39.0%  7.4%  7.9%  0.0%  0.0%    skip:43.5%\n[libx264 @ 000002575305cec0] mb B  I16..4:  0.0%  0.2%  0.0%  B16..8: 26.3%  2.1%  0.3%  direct: 1.6%  skip:69.3%  L0:39.6% L1:59.4% BI: 1.1%\n[libx264 @ 000002575305cec0] 8x8 transform intra:91.5% inter:70.4%\n[libx264 @ 000002575305cec0] direct mvs  spatial:95.5% temporal:4.5%\n[libx264 @ 000002575305cec0] coded y,uvDC,uvAC intra: 83.9% 61.4% 35.1% inter: 8.2% 5.1% 0.3%\n[libx264 @ 000002575305cec0] i16 v,h,dc,p: 18% 17%  8% 57%\n[libx264 @ 000002575305cec0] i8 v,h,dc,ddl,ddr,vr,hd,vl,hu:  5%  6%  3% 10% 19% 15% 20% 10% 12%\n[libx264 @ 000002575305cec0] i4 v,h,dc,ddl,ddr,vr,hd,vl,hu:  4%  4%  2% 10% 19% 15% 21% 10% 15%\n[libx264 @ 000002575305cec0] i8c dc,h,v,p: 47% 22% 13% 18%\n[libx264 @ 000002575305cec0] Weighted P-Frames: Y:0.0% UV:0.0%\n[libx264 @ 000002575305cec0] ref P L0: 47.6% 18.8% 17.9%  7.4%  8.3%\n[libx264 @ 000002575305cec0] ref B L0: 67.0% 20.0% 10.1%  2.8%\n[libx264 @ 000002575305cec0] ref B L1: 89.1% 10.9%\n[libx264 @ 000002575305cec0] kb/s:10189.17\n",
  "seconds": 14.27269697189331,
  "probe_out": {}
}